
        <svg xmlns="http://www.w3.org/2000/svg" xmlns:xlink="http://www.w3.org/1999/xlink" version="1.1" width="3184.6153846153843" 
        height="1008.5710715921869" viewBox="0 0 3184.6153846153843 1008.5710715921869">
			
			<g transform="scale(9.23076923076923) translate(10, 10)">
				<defs id="SvgjsDefs1409"></defs><g id="SvgjsG1410" featureKey="symbolFeature-0" transform="matrix(1.1666666269302368,0,0,1.1666666269302368,-5.833333333333334,-13.380859375000002)" fill="#393e46"><g xmlns="http://www.w3.org/2000/svg"><g><path d="M69.8,55.564c2.291,0,4.091,1.8,4.091,4.091c0,2.236-1.8,4.091-4.091,4.091H53.927c-2.236,0-4.091-1.855-4.091-4.091    c0-2.291,1.855-4.091,4.091-4.091H69.8z"></path><path d="M42.745,47.109c1.582,1.582,1.582,4.2,0,5.782l-9.655,9.655c-1.582,1.582-4.145,1.582-5.782,0    c-1.582-1.582-1.582-4.2,0-5.782L34.073,50l-6.764-6.709c-1.582-1.636-1.582-4.2,0-5.782c1.636-1.636,4.2-1.636,5.782,0    L42.745,47.109z"></path><path d="M86.818,71.327V28.673c0-4.036-3.273-7.309-7.309-7.309H20.491c-4.036,0-7.255,3.273-7.309,7.309v42.655    c0.055,4.036,3.273,7.309,7.309,7.309h59.018C83.545,78.636,86.818,75.364,86.818,71.327z M95,28.673v42.655    c0,8.564-6.927,15.491-15.491,15.491H20.491C11.927,86.818,5,79.891,5,71.327V28.673c0-8.564,6.927-15.491,15.491-15.491h59.018    C88.073,13.182,95,20.109,95,28.673z"></path></g></g></g><g id="SvgjsG1411" featureKey="nameFeature-0" transform="matrix(3.0800697803497314,0,0,3.0800697803497314,121.85977260422307,-33.94092522408711)" fill="#393e46"><path d="M5.924 35.51 c-0.5632 0 -1.0196 -0.4572 -1.0196 -1.0204 l0 -17.738 c0 -0.5624 0.21442 -0.934 0.7012 -1.2156 l7.3844 -4.2684 c0.4872 -0.2816 0.9164 -0.2816 1.4036 0 l3.5008 2.0236 c0.4868 0.2816 0.7012 0.6532 0.7012 1.2156 l0 19.984 c0 0.5632 -0.4568 1.02 -1.02 1.02 s-1.02 -0.4568 -1.02 -1.02 l0 -19.616 l-2.864 -1.6556 l-6.7476 3.9004 l0 17.372 c0 0.5632 -0.4568 1.02 -1.02 1.02 z M5.9244 39.99960938 c-0.19199 0 -0.3716 -0.052032 -0.5252 -0.14441 l-3.6772 -2.1256 c-0.4868 -0.2816 -0.7012 -0.6532 -0.7012 -1.2156 l0 -22.007 c0 -0.5624 0.21442 -0.934 0.7012 -1.2156 l3.6772 -2.1256 c0.15359 -0.092384 0.3332 -0.14559 0.5252 -0.14559 c0.5632 0 1.02 0.4568 1.02 1.02 c0 0.38398 -0.21238 0.7184 -0.52596 0.8924 l-3.358 1.9408 l0 21.273 l3.358 1.9408 c0.31359 0.17398 0.52596 0.5084 0.52596 0.8924 c0 0.5632 -0.4568 1.02 -1.02 1.02 z M9.8084 40.00078124 c-0.5632 0 -1.0196 -0.45724 -1.0196 -1.0204 l0 -11.003 c0 -0.5624 0.21442 -0.934 0.7012 -1.2156 l3.6876 -2.1344 c0.16078 -0.092812 0.33598 -0.1368 0.50916 -0.1368 c0.35238 0 0.6952 0.18281 0.884 0.51 c0.092812 0.16078 0.1368 0.33598 0.1368 0.50916 l0.0048048 11.226 c0 0.5632 -0.4568 1.02 -1.02 1.02 s-1.02 -0.4568 -1.02 -1.02 l0 -9.4572 l-1.844 1.066 l0 10.636 c0 0.5632 -0.4568 1.02 -1.02 1.02 z M9.8088 24.285 c-0.5632 0 -1.0196 -0.45724 -1.0196 -1.0204 l0 -4.2684 c0 -0.5624 0.2148 -0.9336 0.7016 -1.2156 l3.6876 -2.1344 c0.16078 -0.092812 0.33598 -0.1368 0.50916 -0.1368 c0.35238 0 0.6952 0.18281 0.884 0.51 c0.092812 0.16078 0.1368 0.33598 0.1368 0.50916 l0.0048048 4.4912 c0 0.5632 -0.4572 1.02 -1.0204 1.02 s-1.02 -0.4568 -1.02 -1.02 l0 -2.7224 l-1.844 1.066 l0 3.9016 c0 0.5632 -0.4568 1.02 -1.02 1.02 z M21.639200000000002 40 l0.0030859 0.00082032 c-0.5508 0 -1.0212 -0.4568 -1.0212 -1.0252 l0.0048048 -13.244 c0 -0.5624 0.21442 -0.934 0.7012 -1.2156 l7.3844 -4.2684 c0.24359 -0.14078 0.4728 -0.21117 0.70204 -0.21117 s0.45844 0.070392 0.70204 0.21117 l3.5008 2.0236 c0.4868 0.2816 0.7012 0.6532 0.7012 1.2156 l0 4.0468 c0 0.5624 -0.21442 0.934 -0.7016 1.2156 l-3.1824 1.8396 l0 6.1464 c0 0.5632 -0.4568 1.02 -1.02 1.02 s-1.02 -0.4568 -1.02 -1.02 l0 -6.5132 c0 -0.5624 0.21442 -0.934 0.7012 -1.2156 l3.1824 -1.8396 l0 -3.3128 l-2.864 -1.6552 l-6.7476 3.9004 l0 11.114 l1.844 -1.066 l0 -8.17 c0 -0.5624 0.21442 -0.934 0.7012 -1.2156 l3.6772 -2.1256 c0.1532 -0.092384 0.33281 -0.14559 0.5248 -0.14559 c0.5632 0 1.02 0.4568 1.02 1.02 c0 0.38398 -0.21238 0.7184 -0.52596 0.8924 l-3.358 1.9408 l0 8.17 c0 0.5624 -0.21442 0.934 -0.7016 1.2152 l-3.696 2.1348 c-0.15559 0.089608 -0.33238 0.13723 -0.512 0.13723 z M37.3592 40 c-0.6728 0 -1.0188 -0.59208 -1.0188 -1.0249 l0.0048048 -15.711 c0 -0.5632 0.4564 -1.02 1.0196 -1.02 s1.02 0.4568 1.02 1.02 l0 13.947 l2.3388 -1.352 c0.15359 -0.092384 0.3332 -0.14559 0.5252 -0.14559 c0.5632 0 1.02 0.4568 1.02 1.02 c0 0.38398 -0.21558 0.7132 -0.52596 0.89244 l-3.8716 2.2364 c-0.15559 0.089608 -0.33238 0.13723 -0.512 0.13723 z M41.2508 33.2644 c-0.5632 0 -1.02 -0.4568 -1.02 -1.02 l0 -11.225 c0 -0.5632 0.4568 -1.02 1.02 -1.02 s1.02 0.4568 1.02 1.02 l0 11.225 c0 0.5632 -0.4568 1.02 -1.02 1.02 z M37.3612 19.796 l0.0020312 0.0007422 c-0.6728 0 -1.0208 -0.5924 -1.0208 -1.0252 l0.0048048 -4.2644 c0.00078124 -0.5624 0.21438 -0.934 0.70116 -1.2156 l3.6772 -2.1256 c0.15359 -0.092384 0.3332 -0.14559 0.5252 -0.14559 c0.5632 0 1.02 0.4568 1.02 1.02 c0 0.38398 -0.21238 0.7184 -0.52596 0.8924 l-3.358 1.9408 l0 2.1336 l2.3388 -1.352 c0.15359 -0.092384 0.3332 -0.14559 0.5252 -0.14559 c0.5632 0 1.02 0.4568 1.02 1.02 c0 0.38398 -0.21558 0.7132 -0.52596 0.8928 l-3.8716 2.2364 c-0.15559 0.089608 -0.33238 0.13723 -0.512 0.13723 z M49.204 39.963594 c-0.22922 0 -0.4576 -0.069608 -0.70116 -0.21039 l-3.5008 -2.0236 c-0.4868 -0.2816 -0.7012 -0.6532 -0.7012 -1.2156 l0 -13.027 c0 -0.5624 0.21442 -0.934 0.7012 -1.2156 l3.6772 -2.1256 c0.15359 -0.092384 0.3332 -0.14559 0.5252 -0.14559 c0.5632 0 1.02 0.4568 1.02 1.02 c0 0.38398 -0.21238 0.7184 -0.52596 0.8924 l-3.358 1.9408 l0 12.293 l2.864 1.6556 l6.7476 -3.9004 l0 -3.9016 c0 -0.5632 0.4568 -1.02 1.02 -1.02 s1.02 0.4568 1.02 1.02 l0 4.2684 c0 0.5624 -0.21442 0.934 -0.7016 1.2116 l-7.3844 4.2724 c-0.24359 0.14078 -0.4728 0.21117 -0.70204 0.21117 z M49.199200000000005 35.5116 l0.0024609 -0.00042968 c-0.6728 0 -1.0208 -0.5924 -1.0208 -1.0252 l0.0048048 -8.7544 c0 -0.5624 0.21398 -0.934 0.70116 -1.2156 l7.5708 -4.378 c0.15559 -0.089608 0.33238 -0.13723 0.512 -0.13723 c0.5504 0 1.0184 0.452 1.0184 1.0196 l0.004414 4.268 c0.00039062 0.5624 -0.2148 0.934 -0.702 1.2156 l-3.6772 2.1256 c-0.1532 0.092384 -0.33281 0.14559 -0.5248 0.14559 c-0.5632 0 -1.02 -0.4568 -1.02 -1.02 c0 -0.38398 0.21238 -0.7184 0.52596 -0.8924 l3.358 -1.9408 l0 -2.1336 l-5.7276 3.3108 l0 6.6236 l2.3388 -1.352 c0.15359 -0.092384 0.3332 -0.14559 0.5252 -0.14559 c0.5632 0 1.02 0.4568 1.02 1.02 c0 0.38398 -0.2152 0.7132 -0.52596 0.8928 l-3.8716 2.2364 c-0.15559 0.089608 -0.33238 0.13723 -0.512 0.13723 z M64.9288 35.7148 l0.0023438 0.00035156 c0.5632 0 1.02 0.4568 1.02 1.02 c0 0.38398 -0.21558 0.7132 -0.52596 0.8928 l-3.8716 2.2364 c-0.15559 0.089608 -0.33238 0.13723 -0.512 0.13723 c-0.5508 0 -1.0212 -0.4568 -1.0212 -1.0252 l0.0048048 -24.469 c0 -0.5624 0.21442 -0.934 0.7012 -1.2156 l3.6772 -2.1256 c0.15359 -0.092384 0.3332 -0.14559 0.5252 -0.14559 c0.5632 0 1.02 0.4568 1.02 1.02 c0 0.38398 -0.21238 0.7184 -0.52596 0.8924 l-3.358 1.9408 l0 22.339 l2.3388 -1.352 c0.15359 -0.092384 0.3332 -0.14559 0.5252 -0.14559 z M64.9312 15.510000000000002 c0.5632 0 1.02 0.4568 1.02 1.02 l0 15.715 c0 0.5632 -0.4568 1.02 -1.02 1.02 s-1.02 -0.4568 -1.02 -1.02 l0 -15.715 c0 -0.5632 0.4568 -1.02 1.02 -1.02 z"></path></g>
			</g>
		</svg>
	